<svg width="100%" height="100%" viewBox="0 0 7 7" version="1.1" xmlns="http://www.w3.org/2000/svg" xmlns:xlink="http://www.w3.org/1999/xlink" xml:space="preserve" xmlns:serif="http://www.serif.com/" style="fill-rule:evenodd;clip-rule:evenodd;stroke-linejoin:round;stroke-miterlimit:1.41421;"><path id="ion-android-open" d="M6.028,6.029l0,-2.352l0.761,0l0,2.352c0,0.406 -0.354,0.76 -0.761,0.76l-5.268,0c-0.406,0 -0.76,-0.354 -0.76,-0.76l0,-5.268c0,-0.407 0.354,-0.761 0.76,-0.761l2.352,0l0,0.761l-2.352,0l0,5.268l5.268,0Zm-2.068,-6.029l2.828,0l0,2.829l-0.76,0l0,-1.538l-3.801,3.801l-0.53,-0.531l3.801,-3.801l-1.538,0l0,-0.76l0,0Z" style="fill:#bebebe;fill-rule:nonzero;"/>
</svg>